<svg xmlns="http://www.w3.org/2000/svg" width="44" height="44" viewBox="0 0 44 44" fill="none">
<path d="M14.175 17.9406V30.055H17.2491V13.9024H14.8086C14.4801 15.2267 13.9403 15.7044 11.6875 15.7044V17.9406H14.175Z" fill="#E8E8E8"/>
<path d="M27.6959 17.2671C27.6959 15.0961 26.6399 13.75 23.6596 13.75H23.1902C20.0692 13.75 19.154 15.0961 19.154 17.2671V18.6349C19.154 20.5888 20.4212 21.175 20.8201 21.3487C20.4212 21.5007 18.9427 22.1086 18.9427 24.1276V26.5592C18.9427 28.6651 19.858 30.25 23.0964 30.25H23.7065C26.8276 30.25 27.9305 28.6651 27.9305 26.5592V24.1276C27.9305 22.0651 26.3817 21.5007 25.9593 21.3487C26.3583 21.175 27.6959 20.5888 27.6959 18.6349V17.2671ZM24.7625 18.7868C24.7625 19.7204 24.3636 20.2197 23.4484 20.2197C22.5097 20.2197 22.1108 19.7204 22.1108 18.7651V17.4625C22.1108 16.4855 22.5332 16.073 23.4249 16.073C24.3636 16.073 24.7625 16.4855 24.7625 17.4625V18.7868ZM24.8095 26.277C24.8095 27.2105 24.3871 27.775 23.4484 27.775C22.4393 27.775 22.0638 27.2105 22.0638 26.277V24.2145C22.0638 23.2809 22.4393 22.7164 23.4249 22.7164C24.4105 22.7164 24.8095 23.3243 24.8095 24.2145V26.277Z" fill="#E8E8E8"/>
<path d="M34.3747 22.5298V21.4094H32.4775V19.5172H31.1184V21.4094H29.2212V22.5298H31.1184V24.4344H32.4775V22.5298H34.3747Z" fill="#E8E8E8"/>
<circle cx="22" cy="22" r="21.5" stroke="#E8E8E8"/>
</svg>