<svg width="403" height="131" viewBox="0 0 403 131" fill="none" xmlns="http://www.w3.org/2000/svg">
<path d="M403 0H0V71.7498H403V0Z" fill="#FF267E"/>
<path d="M130.714 34.4721H106.732V27.4986H135.732V17.8898H92.8125V53.6936H106.732V44.0848H130.714V34.4721Z" fill="#000055"/>
<path d="M206.941 41.7301L194.214 17.8898H178.252L198.92 53.6936H214.767L235.403 17.8898H219.671L206.941 41.7301Z" fill="#000055"/>
<path d="M279.994 35.5234C283.171 34.3026 285.296 31.2406 285.352 27.8388C285.352 21.9716 280.393 17.9178 270.638 17.9178H239.145V53.7216H271.349C281.808 53.7216 286.458 49.585 286.458 43.6032C286.43 40.229 284.419 37.1947 279.994 35.5234ZM252.725 26.5626H268.26C268.43 26.5349 268.627 26.5073 268.797 26.5073C270.298 26.5073 271.547 27.7558 271.547 29.2572C271.547 30.7585 270.298 32.007 268.797 32.007C268.627 32.007 268.43 31.9794 268.26 31.9517H252.725V26.5626ZM269.366 45.1599H252.725V39.8023H269.366C269.536 39.7747 269.734 39.747 269.903 39.747C271.405 39.747 272.653 40.9955 272.653 42.4969C272.653 43.9983 271.405 45.2468 269.903 45.2468C269.734 45.2191 269.536 45.2191 269.366 45.1599Z" fill="#000055"/>
<path d="M306.956 39.6874H330.91V31.9237H306.956V27.4986H333.404V17.8898H293.036V53.6936H334.055V44.0848H306.956V39.6874Z" fill="#000055"/>
<path d="M339.78 17.8898V27.4986H355.402V53.6936H369.464V27.4986H385.055V17.8898H339.78Z" fill="#000055"/>
<path d="M151.888 17.8898L131.224 53.6936H145.993L148.77 48.4191H170.852L173.661 53.6936H189.054L168.387 17.8898H151.888ZM153.673 39.1224L159.77 27.5855L165.866 39.1224H153.673Z" fill="#000055"/>
<path d="M18.5103 31.9238L30.8413 53.6937H46.661L34.33 31.9238H18.5103Z" fill="#000055"/>
<path d="M58.9921 31.9238L46.6611 53.6937H62.5085L74.8395 31.9238H58.9921Z" fill="#000055"/>
<path d="M46.6611 10.2054L34.3301 31.9239H58.9921L46.6611 10.2054Z" fill="#000055"/>
<path d="M177.66 69.7113H0V130.916H177.66V69.7113Z" fill="#000055"/>
<path fill-rule="evenodd" clip-rule="evenodd" d="M0 69.7113H177.656V130.916H0V69.7113ZM1.9834 71.6947H175.672V128.929H1.9834V71.6947Z" fill="#FF267E"/>
<path d="M39.9996 105.317C39.8258 106.534 39.5176 107.613 38.9487 108.604C38.3837 109.624 37.6449 110.473 36.7361 111.184C35.859 111.919 34.812 112.488 33.6188 112.883C32.4019 113.31 31.0981 113.508 29.6797 113.508C27.8938 113.508 26.3332 113.223 24.9464 112.63C23.5557 112.061 22.4217 111.267 21.4577 110.133C20.466 109.059 19.7864 107.783 19.2767 106.25C18.7947 104.721 18.5103 103.018 18.5103 101.121C18.5103 99.2484 18.7631 97.5495 19.3044 96.0758C19.8417 94.5705 20.5806 93.2943 21.5723 92.2473C22.5363 91.1963 23.6979 90.3745 25.144 89.8372C26.5307 89.2722 28.0637 88.9877 29.8219 88.9877C31.2364 88.9877 32.5125 89.1853 33.6781 89.5527C34.8397 89.9518 35.859 90.4891 36.7361 91.1963C37.6172 91.9075 38.3521 92.757 38.921 93.7487C39.486 94.772 39.8258 95.8743 40.0273 97.1228H35.5469C35.3217 96.301 35.0095 95.5938 34.6698 95.0248C34.2707 94.4598 33.848 94.0331 33.3659 93.6933C32.8247 93.3259 32.315 93.0968 31.7184 92.9545C31.0981 92.8123 30.4738 92.757 29.8219 92.757C28.9408 92.757 28.0637 92.9269 27.3249 93.2666C26.5307 93.6657 25.8512 94.1754 25.2862 94.9103C24.7172 95.6214 24.2629 96.4985 23.9231 97.5495C23.5833 98.5965 23.4411 99.7897 23.4411 101.177C23.4411 102.567 23.611 103.843 23.9231 104.89C24.2629 105.969 24.7172 106.874 25.2862 107.585C25.8512 108.32 26.5031 108.889 27.2696 109.256C28.0361 109.624 28.8302 109.821 29.6797 109.821C30.3592 109.821 31.0665 109.766 31.6907 109.568C32.315 109.398 32.9116 109.142 33.4489 108.774C33.9309 108.462 34.413 107.952 34.7527 107.415C35.1202 106.874 35.4046 106.167 35.6022 105.345L39.9996 105.317Z" fill="#FF267E"/>
<path d="M53.038 89.4107H57.7713L66.7005 113.085H61.5998L59.9285 108.292H50.6279L48.9567 113.085H44.1365L53.038 89.4107ZM51.991 104.464H58.5655L55.2782 95.1396L51.991 104.464Z" fill="#FF267E"/>
<path d="M78.4942 102.71C77.5301 102.508 76.6254 102.255 75.772 101.884C74.8948 101.517 74.1283 101.062 73.5041 100.525C72.8522 99.9599 72.3148 99.308 71.9474 98.5415C71.5484 97.8027 71.3508 96.8663 71.3508 95.8746C71.3508 94.6577 71.6353 93.666 72.2319 92.7849C72.7969 91.9355 73.5357 91.2282 74.4681 90.6593C75.3492 90.0943 76.3686 89.7229 77.5301 89.4108C78.6364 89.1579 79.7704 89.0157 80.849 89.0157C82.0659 89.0157 83.2591 89.1856 84.3614 89.5254C85.44 89.8928 86.4317 90.3748 87.2812 90.9991C88.1346 91.651 88.8418 92.4451 89.3515 93.3539C89.8335 94.2586 90.1456 95.2819 90.2009 96.4159H85.6652C85.5546 95.7324 85.357 95.1397 85.0449 94.6577C84.7051 94.2033 84.3061 93.8082 83.8517 93.5238C83.3973 93.2669 82.86 93.0417 82.295 92.8995C81.7261 92.7849 81.1887 92.7296 80.6198 92.7296C80.0548 92.7296 79.5451 92.7849 78.9762 92.8995C78.4112 92.9864 77.9292 93.1563 77.5025 93.3815C77.0758 93.6383 76.7083 93.9465 76.4555 94.2902C76.171 94.6853 76.0288 95.1397 76.0288 95.6494C76.0288 96.4712 76.3686 97.1231 76.9928 97.6051C77.6171 98.0871 78.4112 98.4269 79.3753 98.5968L82.4926 99.1658C83.4566 99.3356 84.4207 99.5885 85.4123 99.873C86.3764 100.157 87.2535 100.58 88.0477 101.121C88.8141 101.686 89.4384 102.366 89.9204 103.192C90.4024 104.041 90.6553 105.088 90.6553 106.281C90.6553 107.498 90.4024 108.577 89.8335 109.454C89.2685 110.363 88.5297 111.129 87.6249 111.722C86.6885 112.346 85.6376 112.773 84.5313 113.053C83.3697 113.366 82.1804 113.508 80.9912 113.508C79.5175 113.508 78.1821 113.31 76.9928 112.915C75.772 112.544 74.7526 112.006 73.8755 111.299C72.9944 110.616 72.2872 109.766 71.7775 108.719C71.2362 107.696 70.9241 106.562 70.8135 105.286H75.3492C75.4914 106.167 75.7166 106.874 76.0841 107.443C76.4555 108.036 76.8782 108.49 77.3879 108.83C77.8699 109.201 78.4665 109.426 79.1461 109.541C79.7704 109.711 80.4499 109.766 81.1611 109.766C81.6984 109.766 82.2358 109.711 82.8047 109.596C83.3697 109.482 83.8517 109.312 84.3614 109.031C84.8158 108.802 85.2148 108.462 85.5269 108.008C85.8074 107.585 85.9497 107.072 85.9497 106.451C85.9497 105.969 85.8391 105.515 85.6099 105.148C85.3847 104.776 85.0726 104.496 84.6735 104.239C84.2784 104.014 83.8241 103.784 83.2867 103.615C82.7178 103.445 82.1251 103.33 81.5009 103.219L78.4942 102.71Z" fill="#FF267E"/>
<path d="M101.572 89.4107H96.8662V113.053H101.572V89.4107Z" fill="#FF267E"/>
<path d="M123.144 113.053L113.591 95.0251V113.053H109.138V89.4107H115.262L124.815 107.443V89.4107H129.268V113.053H123.144Z" fill="#FF267E"/>
<path d="M140.75 101.232C140.75 102.623 140.947 103.843 141.315 104.918C141.682 105.997 142.137 106.874 142.761 107.585C143.385 108.292 144.12 108.861 144.942 109.229C145.768 109.596 146.645 109.794 147.581 109.794C148.514 109.794 149.395 109.596 150.216 109.229C151.038 108.861 151.777 108.32 152.397 107.585C153.022 106.874 153.504 105.997 153.875 104.918C154.215 103.843 154.385 102.623 154.385 101.232C154.385 99.845 154.183 98.6242 153.875 97.5495C153.504 96.4985 153.022 95.6214 152.397 94.9103C151.777 94.203 151.038 93.638 150.216 93.2666C149.395 92.8992 148.514 92.7016 147.581 92.7016C146.672 92.7016 145.768 92.8992 144.942 93.2666C144.12 93.638 143.385 94.1754 142.761 94.9103C142.137 95.6214 141.682 96.4985 141.315 97.5495C140.947 98.6242 140.75 99.8174 140.75 101.232ZM159.26 101.232C159.26 103.049 159.003 104.721 158.438 106.222C157.869 107.755 157.135 109.031 156.111 110.106C155.064 111.212 153.843 112.034 152.429 112.63C150.983 113.223 149.367 113.508 147.581 113.508C145.795 113.508 144.179 113.223 142.761 112.63C141.315 112.034 140.098 111.24 139.075 110.106C138.028 109.031 137.261 107.755 136.696 106.222C136.127 104.721 135.87 103.049 135.87 101.232C135.87 99.4183 136.127 97.747 136.696 96.2141C137.261 94.7127 138 93.4365 139.075 92.3619C140.098 91.2833 141.315 90.4614 142.761 89.8649C144.179 89.2722 145.795 88.9877 147.581 88.9877C149.367 88.9877 150.983 89.2722 152.429 89.8649C153.843 90.4614 155.064 91.2556 156.111 92.3619C157.135 93.4365 157.897 94.7127 158.438 96.2141C159.003 97.747 159.26 99.3907 159.26 101.232Z" fill="#FF267E"/>
</svg>
